<mxfile host="app.diagrams.net" agent="Mozilla/5.0 (Windows NT 10.0; Win64; x64; rv:144.0) Gecko/20100101 Firefox/144.0" version="28.2.7">
  <diagram name="Page-1" id="6zA1jKckNfjwoGEOOEPr">
    <mxGraphModel grid="1" page="1" gridSize="10" guides="1" tooltips="1" connect="1" arrows="1" fold="1" pageScale="1" pageWidth="1169" pageHeight="827" math="0" shadow="0">
      <root>
        <mxCell id="0" />
        <mxCell id="1" parent="0" />
        <mxCell id="DmlKLq1shtRMBLZsvWSt-1" value="BookStore" style="ellipse;whiteSpace=wrap;html=1;align=center;" vertex="1" parent="1">
          <mxGeometry x="1120" y="40" width="120" height="80" as="geometry" />
        </mxCell>
        <mxCell id="DmlKLq1shtRMBLZsvWSt-6" value="Profile" style="ellipse;shape=doubleEllipse;margin=3;whiteSpace=wrap;html=1;align=center;fillColor=#CCCCCC;fontColor=#333333;strokeColor=#000000;" vertex="1" parent="1">
          <mxGeometry x="-460" y="200" width="80" height="40" as="geometry" />
        </mxCell>
        <mxCell id="DmlKLq1shtRMBLZsvWSt-14" value="" style="endArrow=none;html=1;rounded=0;exitX=0.5;exitY=0;exitDx=0;exitDy=0;entryX=0.5;entryY=1;entryDx=0;entryDy=0;" edge="1" parent="1" source="DmlKLq1shtRMBLZsvWSt-6" target="DmlKLq1shtRMBLZsvWSt-1">
          <mxGeometry width="50" height="50" relative="1" as="geometry">
            <mxPoint x="200" y="510" as="sourcePoint" />
            <mxPoint x="250" y="460" as="targetPoint" />
          </mxGeometry>
        </mxCell>
        <mxCell id="DmlKLq1shtRMBLZsvWSt-15" value="Address" style="ellipse;whiteSpace=wrap;html=1;align=center;fontSize=10;" vertex="1" parent="1">
          <mxGeometry x="-280" y="280" width="80" height="40" as="geometry" />
        </mxCell>
        <mxCell id="DmlKLq1shtRMBLZsvWSt-16" value="ProfileId" style="shape=rhombus;perimeter=rhombusPerimeter;whiteSpace=wrap;html=1;align=center;fontStyle=4;fontSize=10;" vertex="1" parent="1">
          <mxGeometry x="-640" y="280" width="80" height="40" as="geometry" />
        </mxCell>
        <mxCell id="DmlKLq1shtRMBLZsvWSt-211" style="edgeStyle=orthogonalEdgeStyle;rounded=0;orthogonalLoop=1;jettySize=auto;html=1;exitX=0.5;exitY=1;exitDx=0;exitDy=0;entryX=0;entryY=0.5;entryDx=0;entryDy=0;dashed=1;dashPattern=8 8;" edge="1" parent="1" source="DmlKLq1shtRMBLZsvWSt-19" target="DmlKLq1shtRMBLZsvWSt-46">
          <mxGeometry relative="1" as="geometry">
            <Array as="points">
              <mxPoint x="-510" y="440" />
              <mxPoint x="-80" y="440" />
            </Array>
          </mxGeometry>
        </mxCell>
        <mxCell id="DmlKLq1shtRMBLZsvWSt-19" value="&lt;span style=&quot;border-bottom: 1px dotted;&quot;&gt;CustomerId&lt;/span&gt;" style="shape=rhombus;perimeter=rhombusPerimeter;whiteSpace=wrap;html=1;align=center;fontStyle=0;fontSize=10;" vertex="1" parent="1">
          <mxGeometry x="-550" y="280" width="80" height="40" as="geometry" />
        </mxCell>
        <mxCell id="DmlKLq1shtRMBLZsvWSt-20" value="PhoneNumber" style="ellipse;shape=doubleEllipse;margin=3;whiteSpace=wrap;html=1;align=center;fontSize=10;fillColor=#CCCCCC;" vertex="1" parent="1">
          <mxGeometry x="-460" y="280" width="80" height="40" as="geometry" />
        </mxCell>
        <mxCell id="DmlKLq1shtRMBLZsvWSt-21" value="PaymentMethod" style="ellipse;shape=doubleEllipse;margin=3;whiteSpace=wrap;html=1;align=center;fontSize=9;fillColor=#CCCCCC;" vertex="1" parent="1">
          <mxGeometry x="-370" y="280" width="80" height="40" as="geometry" />
        </mxCell>
        <mxCell id="DmlKLq1shtRMBLZsvWSt-22" value="" style="endArrow=none;html=1;rounded=0;exitX=0.5;exitY=0;exitDx=0;exitDy=0;entryX=0.5;entryY=1;entryDx=0;entryDy=0;" edge="1" parent="1" source="DmlKLq1shtRMBLZsvWSt-16" target="DmlKLq1shtRMBLZsvWSt-6">
          <mxGeometry width="50" height="50" relative="1" as="geometry">
            <mxPoint x="-400" y="290" as="sourcePoint" />
            <mxPoint x="-350" y="240" as="targetPoint" />
          </mxGeometry>
        </mxCell>
        <mxCell id="DmlKLq1shtRMBLZsvWSt-23" value="" style="endArrow=none;html=1;rounded=0;exitX=0.5;exitY=0;exitDx=0;exitDy=0;entryX=0.5;entryY=1;entryDx=0;entryDy=0;" edge="1" parent="1" source="DmlKLq1shtRMBLZsvWSt-19" target="DmlKLq1shtRMBLZsvWSt-6">
          <mxGeometry width="50" height="50" relative="1" as="geometry">
            <mxPoint x="-590" y="290" as="sourcePoint" />
            <mxPoint x="-410" y="250" as="targetPoint" />
          </mxGeometry>
        </mxCell>
        <mxCell id="DmlKLq1shtRMBLZsvWSt-24" value="" style="endArrow=none;html=1;rounded=0;exitX=0.5;exitY=0;exitDx=0;exitDy=0;entryX=0.5;entryY=1;entryDx=0;entryDy=0;" edge="1" parent="1" source="DmlKLq1shtRMBLZsvWSt-15" target="DmlKLq1shtRMBLZsvWSt-6">
          <mxGeometry width="50" height="50" relative="1" as="geometry">
            <mxPoint x="-500" y="290" as="sourcePoint" />
            <mxPoint x="-410" y="250" as="targetPoint" />
          </mxGeometry>
        </mxCell>
        <mxCell id="DmlKLq1shtRMBLZsvWSt-25" value="" style="endArrow=none;html=1;rounded=0;exitX=0.5;exitY=0;exitDx=0;exitDy=0;entryX=0.5;entryY=1;entryDx=0;entryDy=0;" edge="1" parent="1" source="DmlKLq1shtRMBLZsvWSt-20" target="DmlKLq1shtRMBLZsvWSt-6">
          <mxGeometry width="50" height="50" relative="1" as="geometry">
            <mxPoint x="-410" y="290" as="sourcePoint" />
            <mxPoint x="-410" y="250" as="targetPoint" />
          </mxGeometry>
        </mxCell>
        <mxCell id="DmlKLq1shtRMBLZsvWSt-26" value="" style="endArrow=none;html=1;rounded=0;exitX=0.5;exitY=0;exitDx=0;exitDy=0;entryX=0.5;entryY=1;entryDx=0;entryDy=0;" edge="1" parent="1" source="DmlKLq1shtRMBLZsvWSt-21" target="DmlKLq1shtRMBLZsvWSt-6">
          <mxGeometry width="50" height="50" relative="1" as="geometry">
            <mxPoint x="-320" y="290" as="sourcePoint" />
            <mxPoint x="-410" y="250" as="targetPoint" />
          </mxGeometry>
        </mxCell>
        <mxCell id="DmlKLq1shtRMBLZsvWSt-27" value="City" style="ellipse;whiteSpace=wrap;html=1;align=center;fontSize=10;" vertex="1" parent="1">
          <mxGeometry x="-370" y="360" width="80" height="40" as="geometry" />
        </mxCell>
        <mxCell id="DmlKLq1shtRMBLZsvWSt-28" value="Street" style="ellipse;whiteSpace=wrap;html=1;align=center;fontSize=10;" vertex="1" parent="1">
          <mxGeometry x="-280" y="360" width="80" height="40" as="geometry" />
        </mxCell>
        <mxCell id="DmlKLq1shtRMBLZsvWSt-29" value="Number" style="ellipse;whiteSpace=wrap;html=1;align=center;fontSize=10;" vertex="1" parent="1">
          <mxGeometry x="-190" y="360" width="80" height="40" as="geometry" />
        </mxCell>
        <mxCell id="DmlKLq1shtRMBLZsvWSt-30" value="" style="endArrow=none;html=1;rounded=0;exitX=0.5;exitY=0;exitDx=0;exitDy=0;entryX=0.5;entryY=1;entryDx=0;entryDy=0;" edge="1" parent="1" source="DmlKLq1shtRMBLZsvWSt-27" target="DmlKLq1shtRMBLZsvWSt-15">
          <mxGeometry width="50" height="50" relative="1" as="geometry">
            <mxPoint x="-410" y="290" as="sourcePoint" />
            <mxPoint x="-410" y="250" as="targetPoint" />
          </mxGeometry>
        </mxCell>
        <mxCell id="DmlKLq1shtRMBLZsvWSt-31" value="" style="endArrow=none;html=1;rounded=0;exitX=0.5;exitY=0;exitDx=0;exitDy=0;entryX=0.5;entryY=1;entryDx=0;entryDy=0;" edge="1" parent="1" source="DmlKLq1shtRMBLZsvWSt-28" target="DmlKLq1shtRMBLZsvWSt-15">
          <mxGeometry width="50" height="50" relative="1" as="geometry">
            <mxPoint x="-500" y="370" as="sourcePoint" />
            <mxPoint x="-410" y="330" as="targetPoint" />
          </mxGeometry>
        </mxCell>
        <mxCell id="DmlKLq1shtRMBLZsvWSt-32" value="" style="endArrow=none;html=1;rounded=0;exitX=0.5;exitY=0;exitDx=0;exitDy=0;entryX=0.5;entryY=1;entryDx=0;entryDy=0;" edge="1" parent="1" source="DmlKLq1shtRMBLZsvWSt-29" target="DmlKLq1shtRMBLZsvWSt-15">
          <mxGeometry width="50" height="50" relative="1" as="geometry">
            <mxPoint x="-410" y="370" as="sourcePoint" />
            <mxPoint x="-410" y="330" as="targetPoint" />
          </mxGeometry>
        </mxCell>
        <mxCell id="DmlKLq1shtRMBLZsvWSt-33" value="" style="whiteSpace=wrap;html=1;aspect=fixed;" vertex="1" parent="1">
          <mxGeometry x="-340" y="330" width="20" height="20" as="geometry" />
        </mxCell>
        <mxCell id="DmlKLq1shtRMBLZsvWSt-34" value="" style="whiteSpace=wrap;html=1;aspect=fixed;" vertex="1" parent="1">
          <mxGeometry x="-430" y="330" width="20" height="20" as="geometry" />
        </mxCell>
        <mxCell id="DmlKLq1shtRMBLZsvWSt-35" value="" style="whiteSpace=wrap;html=1;aspect=fixed;" vertex="1" parent="1">
          <mxGeometry x="-340" y="410" width="20" height="20" as="geometry" />
        </mxCell>
        <mxCell id="DmlKLq1shtRMBLZsvWSt-36" value="" style="whiteSpace=wrap;html=1;aspect=fixed;" vertex="1" parent="1">
          <mxGeometry x="-250" y="410" width="20" height="20" as="geometry" />
        </mxCell>
        <mxCell id="DmlKLq1shtRMBLZsvWSt-37" value="" style="whiteSpace=wrap;html=1;aspect=fixed;" vertex="1" parent="1">
          <mxGeometry x="-160" y="410" width="20" height="20" as="geometry" />
        </mxCell>
        <mxCell id="DmlKLq1shtRMBLZsvWSt-38" value="" style="endArrow=none;html=1;rounded=0;exitX=0.5;exitY=0;exitDx=0;exitDy=0;entryX=0.5;entryY=1;entryDx=0;entryDy=0;" edge="1" parent="1" source="DmlKLq1shtRMBLZsvWSt-34" target="DmlKLq1shtRMBLZsvWSt-20">
          <mxGeometry width="50" height="50" relative="1" as="geometry">
            <mxPoint x="-410" y="290" as="sourcePoint" />
            <mxPoint x="-410" y="250" as="targetPoint" />
          </mxGeometry>
        </mxCell>
        <mxCell id="DmlKLq1shtRMBLZsvWSt-39" value="" style="endArrow=none;html=1;rounded=0;exitX=0.5;exitY=0;exitDx=0;exitDy=0;entryX=0.5;entryY=1;entryDx=0;entryDy=0;" edge="1" parent="1" source="DmlKLq1shtRMBLZsvWSt-33" target="DmlKLq1shtRMBLZsvWSt-21">
          <mxGeometry width="50" height="50" relative="1" as="geometry">
            <mxPoint x="-410" y="340" as="sourcePoint" />
            <mxPoint x="-410" y="330" as="targetPoint" />
          </mxGeometry>
        </mxCell>
        <mxCell id="DmlKLq1shtRMBLZsvWSt-40" value="" style="endArrow=none;html=1;rounded=0;exitX=0.5;exitY=0;exitDx=0;exitDy=0;entryX=0.5;entryY=1;entryDx=0;entryDy=0;" edge="1" parent="1" source="DmlKLq1shtRMBLZsvWSt-35" target="DmlKLq1shtRMBLZsvWSt-27">
          <mxGeometry width="50" height="50" relative="1" as="geometry">
            <mxPoint x="-320" y="300" as="sourcePoint" />
            <mxPoint x="-320" y="290" as="targetPoint" />
          </mxGeometry>
        </mxCell>
        <mxCell id="DmlKLq1shtRMBLZsvWSt-42" value="" style="endArrow=none;html=1;rounded=0;exitX=0.5;exitY=0;exitDx=0;exitDy=0;entryX=0.5;entryY=1;entryDx=0;entryDy=0;" edge="1" parent="1" source="DmlKLq1shtRMBLZsvWSt-36" target="DmlKLq1shtRMBLZsvWSt-28">
          <mxGeometry width="50" height="50" relative="1" as="geometry">
            <mxPoint x="-320" y="420" as="sourcePoint" />
            <mxPoint x="-320" y="410" as="targetPoint" />
          </mxGeometry>
        </mxCell>
        <mxCell id="DmlKLq1shtRMBLZsvWSt-43" value="" style="endArrow=none;html=1;rounded=0;exitX=0.5;exitY=0;exitDx=0;exitDy=0;entryX=0.5;entryY=1;entryDx=0;entryDy=0;" edge="1" parent="1" source="DmlKLq1shtRMBLZsvWSt-37" target="DmlKLq1shtRMBLZsvWSt-29">
          <mxGeometry width="50" height="50" relative="1" as="geometry">
            <mxPoint x="-230" y="420" as="sourcePoint" />
            <mxPoint x="-230" y="410" as="targetPoint" />
          </mxGeometry>
        </mxCell>
        <mxCell id="DmlKLq1shtRMBLZsvWSt-44" value="Customer" style="ellipse;shape=doubleEllipse;margin=3;whiteSpace=wrap;html=1;align=center;fillColor=#CCCCCC;fontColor=#333333;strokeColor=#000000;" vertex="1" parent="1">
          <mxGeometry x="60" y="200" width="80" height="40" as="geometry" />
        </mxCell>
        <mxCell id="DmlKLq1shtRMBLZsvWSt-45" value="Name" style="ellipse;whiteSpace=wrap;html=1;align=center;fontSize=10;" vertex="1" parent="1">
          <mxGeometry x="110" y="280" width="80" height="40" as="geometry" />
        </mxCell>
        <mxCell id="DmlKLq1shtRMBLZsvWSt-46" value="CustomerId" style="shape=rhombus;perimeter=rhombusPerimeter;whiteSpace=wrap;html=1;align=center;fontStyle=4;fontSize=10;" vertex="1" parent="1">
          <mxGeometry x="-80" y="280" width="80" height="40" as="geometry" />
        </mxCell>
        <mxCell id="DmlKLq1shtRMBLZsvWSt-48" value="Email" style="ellipse;shape=doubleEllipse;margin=3;whiteSpace=wrap;html=1;align=center;fontSize=10;fillColor=#CCCCCC;" vertex="1" parent="1">
          <mxGeometry x="10" y="280" width="80" height="40" as="geometry" />
        </mxCell>
        <mxCell id="DmlKLq1shtRMBLZsvWSt-50" value="" style="endArrow=none;html=1;rounded=0;exitX=0.5;exitY=0;exitDx=0;exitDy=0;entryX=0.5;entryY=1;entryDx=0;entryDy=0;" edge="1" parent="1" source="DmlKLq1shtRMBLZsvWSt-46" target="DmlKLq1shtRMBLZsvWSt-44">
          <mxGeometry width="50" height="50" relative="1" as="geometry">
            <mxPoint x="115" y="290" as="sourcePoint" />
            <mxPoint x="165" y="240" as="targetPoint" />
          </mxGeometry>
        </mxCell>
        <mxCell id="DmlKLq1shtRMBLZsvWSt-52" value="" style="endArrow=none;html=1;rounded=0;exitX=0.5;exitY=0;exitDx=0;exitDy=0;entryX=0.5;entryY=1;entryDx=0;entryDy=0;" edge="1" parent="1" source="DmlKLq1shtRMBLZsvWSt-45" target="DmlKLq1shtRMBLZsvWSt-44">
          <mxGeometry width="50" height="50" relative="1" as="geometry">
            <mxPoint x="15" y="290" as="sourcePoint" />
            <mxPoint x="105" y="250" as="targetPoint" />
          </mxGeometry>
        </mxCell>
        <mxCell id="DmlKLq1shtRMBLZsvWSt-53" value="" style="endArrow=none;html=1;rounded=0;exitX=0.5;exitY=0;exitDx=0;exitDy=0;entryX=0.5;entryY=1;entryDx=0;entryDy=0;" edge="1" parent="1" source="DmlKLq1shtRMBLZsvWSt-48" target="DmlKLq1shtRMBLZsvWSt-44">
          <mxGeometry width="50" height="50" relative="1" as="geometry">
            <mxPoint x="105" y="290" as="sourcePoint" />
            <mxPoint x="105" y="250" as="targetPoint" />
          </mxGeometry>
        </mxCell>
        <mxCell id="DmlKLq1shtRMBLZsvWSt-62" value="" style="whiteSpace=wrap;html=1;aspect=fixed;" vertex="1" parent="1">
          <mxGeometry x="40" y="330" width="20" height="20" as="geometry" />
        </mxCell>
        <mxCell id="DmlKLq1shtRMBLZsvWSt-66" value="" style="endArrow=none;html=1;rounded=0;exitX=0.5;exitY=0;exitDx=0;exitDy=0;entryX=0.5;entryY=1;entryDx=0;entryDy=0;" edge="1" parent="1" source="DmlKLq1shtRMBLZsvWSt-62" target="DmlKLq1shtRMBLZsvWSt-48">
          <mxGeometry width="50" height="50" relative="1" as="geometry">
            <mxPoint x="60" y="290" as="sourcePoint" />
            <mxPoint x="60" y="250" as="targetPoint" />
          </mxGeometry>
        </mxCell>
        <mxCell id="DmlKLq1shtRMBLZsvWSt-72" value="RegistrationDate" style="ellipse;whiteSpace=wrap;html=1;align=center;fontSize=10;" vertex="1" parent="1">
          <mxGeometry x="200" y="280" width="80" height="40" as="geometry" />
        </mxCell>
        <mxCell id="DmlKLq1shtRMBLZsvWSt-73" value="" style="endArrow=none;html=1;rounded=0;exitX=0.5;exitY=0;exitDx=0;exitDy=0;entryX=0.5;entryY=1;entryDx=0;entryDy=0;" edge="1" parent="1" source="DmlKLq1shtRMBLZsvWSt-72" target="DmlKLq1shtRMBLZsvWSt-44">
          <mxGeometry width="50" height="50" relative="1" as="geometry">
            <mxPoint x="105" y="290" as="sourcePoint" />
            <mxPoint x="105" y="250" as="targetPoint" />
          </mxGeometry>
        </mxCell>
        <mxCell id="DmlKLq1shtRMBLZsvWSt-77" value="" style="whiteSpace=wrap;html=1;aspect=fixed;" vertex="1" parent="1">
          <mxGeometry x="140" y="330" width="20" height="20" as="geometry" />
        </mxCell>
        <mxCell id="DmlKLq1shtRMBLZsvWSt-79" value="" style="whiteSpace=wrap;html=1;aspect=fixed;" vertex="1" parent="1">
          <mxGeometry x="230" y="330" width="20" height="20" as="geometry" />
        </mxCell>
        <mxCell id="DmlKLq1shtRMBLZsvWSt-81" value="" style="endArrow=none;html=1;rounded=0;exitX=0.5;exitY=0;exitDx=0;exitDy=0;entryX=0.5;entryY=1;entryDx=0;entryDy=0;" edge="1" parent="1" source="DmlKLq1shtRMBLZsvWSt-77" target="DmlKLq1shtRMBLZsvWSt-45">
          <mxGeometry width="50" height="50" relative="1" as="geometry">
            <mxPoint x="70" y="340" as="sourcePoint" />
            <mxPoint x="70" y="330" as="targetPoint" />
          </mxGeometry>
        </mxCell>
        <mxCell id="DmlKLq1shtRMBLZsvWSt-82" value="" style="endArrow=none;html=1;rounded=0;exitX=0.5;exitY=0;exitDx=0;exitDy=0;entryX=0.5;entryY=1;entryDx=0;entryDy=0;" edge="1" parent="1" source="DmlKLq1shtRMBLZsvWSt-79" target="DmlKLq1shtRMBLZsvWSt-72">
          <mxGeometry width="50" height="50" relative="1" as="geometry">
            <mxPoint x="160" y="340" as="sourcePoint" />
            <mxPoint x="160" y="330" as="targetPoint" />
          </mxGeometry>
        </mxCell>
        <mxCell id="DmlKLq1shtRMBLZsvWSt-83" value="" style="endArrow=none;html=1;rounded=0;exitX=0.5;exitY=0;exitDx=0;exitDy=0;entryX=0.5;entryY=1;entryDx=0;entryDy=0;" edge="1" parent="1" source="DmlKLq1shtRMBLZsvWSt-44" target="DmlKLq1shtRMBLZsvWSt-1">
          <mxGeometry width="50" height="50" relative="1" as="geometry">
            <mxPoint x="-410" y="210" as="sourcePoint" />
            <mxPoint x="-30" y="130" as="targetPoint" />
          </mxGeometry>
        </mxCell>
        <mxCell id="DmlKLq1shtRMBLZsvWSt-84" value="Order" style="ellipse;shape=doubleEllipse;margin=3;whiteSpace=wrap;html=1;align=center;fillColor=#CCCCCC;fontColor=#333333;strokeColor=#000000;" vertex="1" parent="1">
          <mxGeometry x="460" y="200" width="80" height="40" as="geometry" />
        </mxCell>
        <mxCell id="DmlKLq1shtRMBLZsvWSt-85" value="Date" style="ellipse;whiteSpace=wrap;html=1;align=center;fontSize=10;" vertex="1" parent="1">
          <mxGeometry x="510" y="280" width="80" height="40" as="geometry" />
        </mxCell>
        <mxCell id="DmlKLq1shtRMBLZsvWSt-86" value="OrderId" style="shape=rhombus;perimeter=rhombusPerimeter;whiteSpace=wrap;html=1;align=center;fontStyle=4;fontSize=10;" vertex="1" parent="1">
          <mxGeometry x="410" y="280" width="80" height="40" as="geometry" />
        </mxCell>
        <mxCell id="DmlKLq1shtRMBLZsvWSt-212" style="edgeStyle=orthogonalEdgeStyle;rounded=0;orthogonalLoop=1;jettySize=auto;html=1;entryX=1;entryY=0.5;entryDx=0;entryDy=0;dashed=1;dashPattern=8 8;" edge="1" parent="1" source="DmlKLq1shtRMBLZsvWSt-87" target="DmlKLq1shtRMBLZsvWSt-46">
          <mxGeometry relative="1" as="geometry">
            <Array as="points">
              <mxPoint x="360" y="440" />
              <mxPoint y="440" />
            </Array>
          </mxGeometry>
        </mxCell>
        <mxCell id="DmlKLq1shtRMBLZsvWSt-87" value="&lt;span style=&quot;border-bottom: 1px dotted;&quot;&gt;CustomerId&lt;/span&gt;" style="shape=rhombus;perimeter=rhombusPerimeter;whiteSpace=wrap;html=1;align=center;fontStyle=0;fontSize=10;" vertex="1" parent="1">
          <mxGeometry x="320" y="280" width="80" height="40" as="geometry" />
        </mxCell>
        <mxCell id="DmlKLq1shtRMBLZsvWSt-90" value="" style="endArrow=none;html=1;rounded=0;exitX=0.5;exitY=0;exitDx=0;exitDy=0;entryX=0.5;entryY=1;entryDx=0;entryDy=0;" edge="1" parent="1" source="DmlKLq1shtRMBLZsvWSt-86" target="DmlKLq1shtRMBLZsvWSt-84">
          <mxGeometry width="50" height="50" relative="1" as="geometry">
            <mxPoint x="525" y="290" as="sourcePoint" />
            <mxPoint x="575" y="240" as="targetPoint" />
          </mxGeometry>
        </mxCell>
        <mxCell id="DmlKLq1shtRMBLZsvWSt-91" value="" style="endArrow=none;html=1;rounded=0;exitX=0.5;exitY=0;exitDx=0;exitDy=0;entryX=0.5;entryY=1;entryDx=0;entryDy=0;" edge="1" parent="1" source="DmlKLq1shtRMBLZsvWSt-87" target="DmlKLq1shtRMBLZsvWSt-84">
          <mxGeometry width="50" height="50" relative="1" as="geometry">
            <mxPoint x="335" y="290" as="sourcePoint" />
            <mxPoint x="515" y="250" as="targetPoint" />
          </mxGeometry>
        </mxCell>
        <mxCell id="DmlKLq1shtRMBLZsvWSt-92" value="" style="endArrow=none;html=1;rounded=0;exitX=0.5;exitY=0;exitDx=0;exitDy=0;entryX=0.5;entryY=1;entryDx=0;entryDy=0;" edge="1" parent="1" source="DmlKLq1shtRMBLZsvWSt-85" target="DmlKLq1shtRMBLZsvWSt-84">
          <mxGeometry width="50" height="50" relative="1" as="geometry">
            <mxPoint x="425" y="290" as="sourcePoint" />
            <mxPoint x="515" y="250" as="targetPoint" />
          </mxGeometry>
        </mxCell>
        <mxCell id="DmlKLq1shtRMBLZsvWSt-111" value="Status" style="ellipse;whiteSpace=wrap;html=1;align=center;fontSize=10;" vertex="1" parent="1">
          <mxGeometry x="600" y="280" width="80" height="40" as="geometry" />
        </mxCell>
        <mxCell id="DmlKLq1shtRMBLZsvWSt-112" value="" style="endArrow=none;html=1;rounded=0;exitX=0.5;exitY=0;exitDx=0;exitDy=0;entryX=0.5;entryY=1;entryDx=0;entryDy=0;" edge="1" parent="1" source="DmlKLq1shtRMBLZsvWSt-111" target="DmlKLq1shtRMBLZsvWSt-84">
          <mxGeometry width="50" height="50" relative="1" as="geometry">
            <mxPoint x="515" y="290" as="sourcePoint" />
            <mxPoint x="515" y="250" as="targetPoint" />
          </mxGeometry>
        </mxCell>
        <mxCell id="DmlKLq1shtRMBLZsvWSt-113" value="" style="whiteSpace=wrap;html=1;aspect=fixed;" vertex="1" parent="1">
          <mxGeometry x="540" y="330" width="20" height="20" as="geometry" />
        </mxCell>
        <mxCell id="DmlKLq1shtRMBLZsvWSt-114" value="" style="whiteSpace=wrap;html=1;aspect=fixed;" vertex="1" parent="1">
          <mxGeometry x="630" y="330" width="20" height="20" as="geometry" />
        </mxCell>
        <mxCell id="DmlKLq1shtRMBLZsvWSt-115" value="" style="endArrow=none;html=1;rounded=0;exitX=0.5;exitY=0;exitDx=0;exitDy=0;entryX=0.5;entryY=1;entryDx=0;entryDy=0;" edge="1" parent="1" source="DmlKLq1shtRMBLZsvWSt-113" target="DmlKLq1shtRMBLZsvWSt-85">
          <mxGeometry width="50" height="50" relative="1" as="geometry">
            <mxPoint x="560" y="290" as="sourcePoint" />
            <mxPoint x="560" y="250" as="targetPoint" />
          </mxGeometry>
        </mxCell>
        <mxCell id="DmlKLq1shtRMBLZsvWSt-116" value="" style="endArrow=none;html=1;rounded=0;exitX=0.5;exitY=0;exitDx=0;exitDy=0;entryX=0.5;entryY=1;entryDx=0;entryDy=0;" edge="1" parent="1" source="DmlKLq1shtRMBLZsvWSt-114" target="DmlKLq1shtRMBLZsvWSt-111">
          <mxGeometry width="50" height="50" relative="1" as="geometry">
            <mxPoint x="555" y="340" as="sourcePoint" />
            <mxPoint x="555" y="330" as="targetPoint" />
          </mxGeometry>
        </mxCell>
        <mxCell id="DmlKLq1shtRMBLZsvWSt-117" value="" style="endArrow=none;html=1;rounded=0;exitX=0.5;exitY=0;exitDx=0;exitDy=0;entryX=0.5;entryY=1;entryDx=0;entryDy=0;" edge="1" parent="1" source="DmlKLq1shtRMBLZsvWSt-84" target="DmlKLq1shtRMBLZsvWSt-1">
          <mxGeometry width="50" height="50" relative="1" as="geometry">
            <mxPoint x="110" y="210" as="sourcePoint" />
            <mxPoint x="-30" y="130" as="targetPoint" />
          </mxGeometry>
        </mxCell>
        <mxCell id="DmlKLq1shtRMBLZsvWSt-118" value="OrderItem" style="ellipse;shape=doubleEllipse;margin=3;whiteSpace=wrap;html=1;align=center;fillColor=#CCCCCC;fontColor=#333333;strokeColor=#000000;" vertex="1" parent="1">
          <mxGeometry x="900" y="200" width="80" height="40" as="geometry" />
        </mxCell>
        <mxCell id="DmlKLq1shtRMBLZsvWSt-119" value="Quantity" style="ellipse;whiteSpace=wrap;html=1;align=center;fontSize=10;" vertex="1" parent="1">
          <mxGeometry x="990" y="280" width="80" height="40" as="geometry" />
        </mxCell>
        <mxCell id="DmlKLq1shtRMBLZsvWSt-120" value="OrderItemId" style="shape=rhombus;perimeter=rhombusPerimeter;whiteSpace=wrap;html=1;align=center;fontStyle=4;fontSize=10;" vertex="1" parent="1">
          <mxGeometry x="720" y="280" width="80" height="40" as="geometry" />
        </mxCell>
        <mxCell id="DmlKLq1shtRMBLZsvWSt-213" style="edgeStyle=orthogonalEdgeStyle;rounded=0;orthogonalLoop=1;jettySize=auto;html=1;exitX=0.5;exitY=1;exitDx=0;exitDy=0;entryX=0.5;entryY=1;entryDx=0;entryDy=0;dashed=1;dashPattern=8 8;" edge="1" parent="1" source="DmlKLq1shtRMBLZsvWSt-121" target="DmlKLq1shtRMBLZsvWSt-86">
          <mxGeometry relative="1" as="geometry">
            <Array as="points">
              <mxPoint x="850" y="440" />
              <mxPoint x="450" y="440" />
            </Array>
          </mxGeometry>
        </mxCell>
        <mxCell id="DmlKLq1shtRMBLZsvWSt-121" value="&lt;span style=&quot;border-bottom: 1px dotted;&quot;&gt;OrderId&lt;/span&gt;" style="shape=rhombus;perimeter=rhombusPerimeter;whiteSpace=wrap;html=1;align=center;fontStyle=0;fontSize=10;" vertex="1" parent="1">
          <mxGeometry x="810" y="280" width="80" height="40" as="geometry" />
        </mxCell>
        <mxCell id="DmlKLq1shtRMBLZsvWSt-122" value="" style="endArrow=none;html=1;rounded=0;exitX=0.5;exitY=0;exitDx=0;exitDy=0;entryX=0.5;entryY=1;entryDx=0;entryDy=0;" edge="1" parent="1" source="DmlKLq1shtRMBLZsvWSt-120" target="DmlKLq1shtRMBLZsvWSt-118">
          <mxGeometry width="50" height="50" relative="1" as="geometry">
            <mxPoint x="965" y="290" as="sourcePoint" />
            <mxPoint x="1015" y="240" as="targetPoint" />
          </mxGeometry>
        </mxCell>
        <mxCell id="DmlKLq1shtRMBLZsvWSt-123" value="" style="endArrow=none;html=1;rounded=0;exitX=0.5;exitY=0;exitDx=0;exitDy=0;entryX=0.5;entryY=1;entryDx=0;entryDy=0;" edge="1" parent="1" source="DmlKLq1shtRMBLZsvWSt-121" target="DmlKLq1shtRMBLZsvWSt-118">
          <mxGeometry width="50" height="50" relative="1" as="geometry">
            <mxPoint x="775" y="290" as="sourcePoint" />
            <mxPoint x="955" y="250" as="targetPoint" />
          </mxGeometry>
        </mxCell>
        <mxCell id="DmlKLq1shtRMBLZsvWSt-124" value="" style="endArrow=none;html=1;rounded=0;exitX=0.5;exitY=0;exitDx=0;exitDy=0;entryX=0.5;entryY=1;entryDx=0;entryDy=0;" edge="1" parent="1" source="DmlKLq1shtRMBLZsvWSt-119" target="DmlKLq1shtRMBLZsvWSt-118">
          <mxGeometry width="50" height="50" relative="1" as="geometry">
            <mxPoint x="865" y="290" as="sourcePoint" />
            <mxPoint x="955" y="250" as="targetPoint" />
          </mxGeometry>
        </mxCell>
        <mxCell id="DmlKLq1shtRMBLZsvWSt-125" value="Total" style="ellipse;whiteSpace=wrap;html=1;align=center;fontSize=10;" vertex="1" parent="1">
          <mxGeometry x="1080" y="280" width="80" height="40" as="geometry" />
        </mxCell>
        <mxCell id="DmlKLq1shtRMBLZsvWSt-126" value="" style="endArrow=none;html=1;rounded=0;exitX=0.5;exitY=0;exitDx=0;exitDy=0;entryX=0.5;entryY=1;entryDx=0;entryDy=0;" edge="1" parent="1" source="DmlKLq1shtRMBLZsvWSt-125" target="DmlKLq1shtRMBLZsvWSt-118">
          <mxGeometry width="50" height="50" relative="1" as="geometry">
            <mxPoint x="955" y="290" as="sourcePoint" />
            <mxPoint x="955" y="250" as="targetPoint" />
          </mxGeometry>
        </mxCell>
        <mxCell id="DmlKLq1shtRMBLZsvWSt-127" value="" style="whiteSpace=wrap;html=1;aspect=fixed;" vertex="1" parent="1">
          <mxGeometry x="1020" y="330" width="20" height="20" as="geometry" />
        </mxCell>
        <mxCell id="DmlKLq1shtRMBLZsvWSt-128" value="" style="whiteSpace=wrap;html=1;aspect=fixed;" vertex="1" parent="1">
          <mxGeometry x="1110" y="330" width="20" height="20" as="geometry" />
        </mxCell>
        <mxCell id="DmlKLq1shtRMBLZsvWSt-129" value="" style="endArrow=none;html=1;rounded=0;exitX=0.5;exitY=0;exitDx=0;exitDy=0;entryX=0.5;entryY=1;entryDx=0;entryDy=0;" edge="1" parent="1" source="DmlKLq1shtRMBLZsvWSt-127" target="DmlKLq1shtRMBLZsvWSt-119">
          <mxGeometry width="50" height="50" relative="1" as="geometry">
            <mxPoint x="1040" y="290" as="sourcePoint" />
            <mxPoint x="1040" y="250" as="targetPoint" />
          </mxGeometry>
        </mxCell>
        <mxCell id="DmlKLq1shtRMBLZsvWSt-130" value="" style="endArrow=none;html=1;rounded=0;exitX=0.5;exitY=0;exitDx=0;exitDy=0;entryX=0.5;entryY=1;entryDx=0;entryDy=0;" edge="1" parent="1" source="DmlKLq1shtRMBLZsvWSt-128" target="DmlKLq1shtRMBLZsvWSt-125">
          <mxGeometry width="50" height="50" relative="1" as="geometry">
            <mxPoint x="1035" y="340" as="sourcePoint" />
            <mxPoint x="1035" y="330" as="targetPoint" />
          </mxGeometry>
        </mxCell>
        <mxCell id="DmlKLq1shtRMBLZsvWSt-216" style="edgeStyle=orthogonalEdgeStyle;rounded=0;orthogonalLoop=1;jettySize=auto;html=1;exitX=0.5;exitY=1;exitDx=0;exitDy=0;dashed=1;dashPattern=8 8;entryX=0;entryY=0.5;entryDx=0;entryDy=0;" edge="1" parent="1" target="DmlKLq1shtRMBLZsvWSt-136">
          <mxGeometry relative="1" as="geometry">
            <mxPoint x="940" y="321" as="sourcePoint" />
            <mxPoint x="1740" y="331" as="targetPoint" />
            <Array as="points">
              <mxPoint x="940" y="440" />
              <mxPoint x="1710" y="440" />
            </Array>
          </mxGeometry>
        </mxCell>
        <mxCell id="DmlKLq1shtRMBLZsvWSt-131" value="&lt;span style=&quot;border-bottom: 1px dotted;&quot;&gt;BookId&lt;/span&gt;" style="shape=rhombus;perimeter=rhombusPerimeter;whiteSpace=wrap;html=1;align=center;fontStyle=0;fontSize=10;" vertex="1" parent="1">
          <mxGeometry x="900" y="280" width="80" height="40" as="geometry" />
        </mxCell>
        <mxCell id="DmlKLq1shtRMBLZsvWSt-132" value="" style="endArrow=none;html=1;rounded=0;exitX=0.5;exitY=0;exitDx=0;exitDy=0;entryX=0.5;entryY=1;entryDx=0;entryDy=0;" edge="1" parent="1" source="DmlKLq1shtRMBLZsvWSt-131" target="DmlKLq1shtRMBLZsvWSt-118">
          <mxGeometry width="50" height="50" relative="1" as="geometry">
            <mxPoint x="900" y="290" as="sourcePoint" />
            <mxPoint x="950" y="250" as="targetPoint" />
          </mxGeometry>
        </mxCell>
        <mxCell id="DmlKLq1shtRMBLZsvWSt-133" value="" style="endArrow=none;html=1;rounded=0;exitX=0.5;exitY=0;exitDx=0;exitDy=0;entryX=0.5;entryY=1;entryDx=0;entryDy=0;" edge="1" parent="1" source="DmlKLq1shtRMBLZsvWSt-118" target="DmlKLq1shtRMBLZsvWSt-1">
          <mxGeometry width="50" height="50" relative="1" as="geometry">
            <mxPoint x="510" y="210" as="sourcePoint" />
            <mxPoint x="440" y="120" as="targetPoint" />
          </mxGeometry>
        </mxCell>
        <mxCell id="DmlKLq1shtRMBLZsvWSt-134" value="Book" style="ellipse;shape=doubleEllipse;margin=3;whiteSpace=wrap;html=1;align=center;fillColor=#CCCCCC;fontColor=#333333;strokeColor=#000000;" vertex="1" parent="1">
          <mxGeometry x="1800" y="200" width="80" height="40" as="geometry" />
        </mxCell>
        <mxCell id="DmlKLq1shtRMBLZsvWSt-135" value="Price" style="ellipse;whiteSpace=wrap;html=1;align=center;fontSize=10;" vertex="1" parent="1">
          <mxGeometry x="1890" y="280" width="80" height="40" as="geometry" />
        </mxCell>
        <mxCell id="DmlKLq1shtRMBLZsvWSt-136" value="BookId" style="shape=rhombus;perimeter=rhombusPerimeter;whiteSpace=wrap;html=1;align=center;fontStyle=4;fontSize=10;" vertex="1" parent="1">
          <mxGeometry x="1710" y="280" width="80" height="40" as="geometry" />
        </mxCell>
        <mxCell id="DmlKLq1shtRMBLZsvWSt-217" style="edgeStyle=orthogonalEdgeStyle;rounded=0;orthogonalLoop=1;jettySize=auto;html=1;entryX=0.5;entryY=1;entryDx=0;entryDy=0;exitX=0.5;exitY=1;exitDx=0;exitDy=0;dashed=1;dashPattern=8 8;" edge="1" parent="1" source="DmlKLq1shtRMBLZsvWSt-137" target="DmlKLq1shtRMBLZsvWSt-196">
          <mxGeometry relative="1" as="geometry">
            <mxPoint x="1660.0344827586214" y="369.99275862068976" as="sourcePoint" />
            <mxPoint x="1260.0000000000005" y="370.01" as="targetPoint" />
            <Array as="points">
              <mxPoint x="1660" y="400" />
              <mxPoint x="1260" y="400" />
            </Array>
          </mxGeometry>
        </mxCell>
        <mxCell id="DmlKLq1shtRMBLZsvWSt-137" value="&lt;span style=&quot;border-bottom: 1px dotted;&quot;&gt;PublisherId&lt;/span&gt;" style="shape=rhombus;perimeter=rhombusPerimeter;whiteSpace=wrap;html=1;align=center;fontStyle=0;fontSize=10;" vertex="1" parent="1">
          <mxGeometry x="1620" y="280" width="80" height="40" as="geometry" />
        </mxCell>
        <mxCell id="DmlKLq1shtRMBLZsvWSt-138" value="" style="endArrow=none;html=1;rounded=0;exitX=0.5;exitY=0;exitDx=0;exitDy=0;entryX=0.5;entryY=1;entryDx=0;entryDy=0;" edge="1" parent="1" source="DmlKLq1shtRMBLZsvWSt-136" target="DmlKLq1shtRMBLZsvWSt-134">
          <mxGeometry width="50" height="50" relative="1" as="geometry">
            <mxPoint x="1865" y="290" as="sourcePoint" />
            <mxPoint x="1915" y="240" as="targetPoint" />
          </mxGeometry>
        </mxCell>
        <mxCell id="DmlKLq1shtRMBLZsvWSt-139" value="" style="endArrow=none;html=1;rounded=0;exitX=0.5;exitY=0;exitDx=0;exitDy=0;entryX=0.5;entryY=1;entryDx=0;entryDy=0;" edge="1" parent="1" source="DmlKLq1shtRMBLZsvWSt-137" target="DmlKLq1shtRMBLZsvWSt-134">
          <mxGeometry width="50" height="50" relative="1" as="geometry">
            <mxPoint x="1675" y="290" as="sourcePoint" />
            <mxPoint x="1855" y="250" as="targetPoint" />
          </mxGeometry>
        </mxCell>
        <mxCell id="DmlKLq1shtRMBLZsvWSt-140" value="" style="endArrow=none;html=1;rounded=0;exitX=0.5;exitY=0;exitDx=0;exitDy=0;entryX=0.5;entryY=1;entryDx=0;entryDy=0;" edge="1" parent="1" source="DmlKLq1shtRMBLZsvWSt-135" target="DmlKLq1shtRMBLZsvWSt-134">
          <mxGeometry width="50" height="50" relative="1" as="geometry">
            <mxPoint x="1765" y="290" as="sourcePoint" />
            <mxPoint x="1855" y="250" as="targetPoint" />
          </mxGeometry>
        </mxCell>
        <mxCell id="DmlKLq1shtRMBLZsvWSt-141" value="ISBN" style="ellipse;whiteSpace=wrap;html=1;align=center;fontSize=10;" vertex="1" parent="1">
          <mxGeometry x="1980" y="280" width="80" height="40" as="geometry" />
        </mxCell>
        <mxCell id="DmlKLq1shtRMBLZsvWSt-142" value="" style="endArrow=none;html=1;rounded=0;exitX=0.5;exitY=0;exitDx=0;exitDy=0;entryX=0.5;entryY=1;entryDx=0;entryDy=0;" edge="1" parent="1" source="DmlKLq1shtRMBLZsvWSt-141" target="DmlKLq1shtRMBLZsvWSt-134">
          <mxGeometry width="50" height="50" relative="1" as="geometry">
            <mxPoint x="1855" y="290" as="sourcePoint" />
            <mxPoint x="1855" y="250" as="targetPoint" />
          </mxGeometry>
        </mxCell>
        <mxCell id="DmlKLq1shtRMBLZsvWSt-143" value="" style="whiteSpace=wrap;html=1;aspect=fixed;" vertex="1" parent="1">
          <mxGeometry x="1920" y="330" width="20" height="20" as="geometry" />
        </mxCell>
        <mxCell id="DmlKLq1shtRMBLZsvWSt-144" value="" style="whiteSpace=wrap;html=1;aspect=fixed;" vertex="1" parent="1">
          <mxGeometry x="2010" y="330" width="20" height="20" as="geometry" />
        </mxCell>
        <mxCell id="DmlKLq1shtRMBLZsvWSt-145" value="" style="endArrow=none;html=1;rounded=0;exitX=0.5;exitY=0;exitDx=0;exitDy=0;entryX=0.5;entryY=1;entryDx=0;entryDy=0;" edge="1" parent="1" source="DmlKLq1shtRMBLZsvWSt-143" target="DmlKLq1shtRMBLZsvWSt-135">
          <mxGeometry width="50" height="50" relative="1" as="geometry">
            <mxPoint x="1940" y="290" as="sourcePoint" />
            <mxPoint x="1940" y="250" as="targetPoint" />
          </mxGeometry>
        </mxCell>
        <mxCell id="DmlKLq1shtRMBLZsvWSt-146" value="" style="endArrow=none;html=1;rounded=0;exitX=0.5;exitY=0;exitDx=0;exitDy=0;entryX=0.5;entryY=1;entryDx=0;entryDy=0;" edge="1" parent="1" source="DmlKLq1shtRMBLZsvWSt-144" target="DmlKLq1shtRMBLZsvWSt-141">
          <mxGeometry width="50" height="50" relative="1" as="geometry">
            <mxPoint x="1935" y="340" as="sourcePoint" />
            <mxPoint x="1935" y="330" as="targetPoint" />
          </mxGeometry>
        </mxCell>
        <mxCell id="DmlKLq1shtRMBLZsvWSt-148" value="" style="endArrow=none;html=1;rounded=0;exitX=0.5;exitY=0;exitDx=0;exitDy=0;entryX=0.5;entryY=1;entryDx=0;entryDy=0;" edge="1" parent="1" source="DmlKLq1shtRMBLZsvWSt-149" target="DmlKLq1shtRMBLZsvWSt-134">
          <mxGeometry width="50" height="50" relative="1" as="geometry">
            <mxPoint x="1840" y="280" as="sourcePoint" />
            <mxPoint x="1850" y="250" as="targetPoint" />
          </mxGeometry>
        </mxCell>
        <mxCell id="DmlKLq1shtRMBLZsvWSt-149" value="Title" style="ellipse;whiteSpace=wrap;html=1;align=center;fontSize=10;" vertex="1" parent="1">
          <mxGeometry x="1800" y="280" width="80" height="40" as="geometry" />
        </mxCell>
        <mxCell id="DmlKLq1shtRMBLZsvWSt-150" value="" style="whiteSpace=wrap;html=1;aspect=fixed;" vertex="1" parent="1">
          <mxGeometry x="1830" y="330" width="20" height="20" as="geometry" />
        </mxCell>
        <mxCell id="DmlKLq1shtRMBLZsvWSt-151" value="" style="endArrow=none;html=1;rounded=0;exitX=0.5;exitY=0;exitDx=0;exitDy=0;entryX=0.5;entryY=1;entryDx=0;entryDy=0;" edge="1" parent="1" source="DmlKLq1shtRMBLZsvWSt-150" target="DmlKLq1shtRMBLZsvWSt-149">
          <mxGeometry width="50" height="50" relative="1" as="geometry">
            <mxPoint x="1850" y="310" as="sourcePoint" />
            <mxPoint x="1850" y="270" as="targetPoint" />
          </mxGeometry>
        </mxCell>
        <mxCell id="DmlKLq1shtRMBLZsvWSt-152" value="" style="endArrow=none;html=1;rounded=0;exitX=0.5;exitY=0;exitDx=0;exitDy=0;entryX=0.5;entryY=1;entryDx=0;entryDy=0;" edge="1" parent="1" source="DmlKLq1shtRMBLZsvWSt-134" target="DmlKLq1shtRMBLZsvWSt-1">
          <mxGeometry width="50" height="50" relative="1" as="geometry">
            <mxPoint x="950" y="210" as="sourcePoint" />
            <mxPoint x="900" y="110" as="targetPoint" />
          </mxGeometry>
        </mxCell>
        <mxCell id="DmlKLq1shtRMBLZsvWSt-153" value="B-A" style="ellipse;shape=doubleEllipse;margin=3;whiteSpace=wrap;html=1;align=center;fillColor=#CCCCCC;fontColor=#333333;strokeColor=#000000;" vertex="1" parent="1">
          <mxGeometry x="2160" y="200" width="80" height="40" as="geometry" />
        </mxCell>
        <mxCell id="DmlKLq1shtRMBLZsvWSt-218" style="edgeStyle=orthogonalEdgeStyle;rounded=0;orthogonalLoop=1;jettySize=auto;html=1;exitX=0.5;exitY=1;exitDx=0;exitDy=0;entryX=1;entryY=0.5;entryDx=0;entryDy=0;dashed=1;dashPattern=8 8;" edge="1" parent="1" source="DmlKLq1shtRMBLZsvWSt-156" target="DmlKLq1shtRMBLZsvWSt-136">
          <mxGeometry relative="1" as="geometry">
            <Array as="points">
              <mxPoint x="2150" y="440" />
              <mxPoint x="1790" y="440" />
            </Array>
          </mxGeometry>
        </mxCell>
        <mxCell id="DmlKLq1shtRMBLZsvWSt-156" value="&lt;span style=&quot;border-bottom: 1px dotted;&quot;&gt;BookId&lt;/span&gt;" style="shape=rhombus;perimeter=rhombusPerimeter;whiteSpace=wrap;html=1;align=center;fontStyle=0;fontSize=10;" vertex="1" parent="1">
          <mxGeometry x="2110" y="280" width="80" height="40" as="geometry" />
        </mxCell>
        <mxCell id="DmlKLq1shtRMBLZsvWSt-158" value="" style="endArrow=none;html=1;rounded=0;exitX=0.5;exitY=0;exitDx=0;exitDy=0;entryX=0.5;entryY=1;entryDx=0;entryDy=0;" edge="1" parent="1" source="DmlKLq1shtRMBLZsvWSt-156" target="DmlKLq1shtRMBLZsvWSt-153">
          <mxGeometry width="50" height="50" relative="1" as="geometry">
            <mxPoint x="2035" y="290" as="sourcePoint" />
            <mxPoint x="2215" y="250" as="targetPoint" />
          </mxGeometry>
        </mxCell>
        <mxCell id="DmlKLq1shtRMBLZsvWSt-219" style="edgeStyle=orthogonalEdgeStyle;rounded=0;orthogonalLoop=1;jettySize=auto;html=1;exitX=0.5;exitY=1;exitDx=0;exitDy=0;entryX=0.5;entryY=1;entryDx=0;entryDy=0;dashed=1;dashPattern=8 8;" edge="1" parent="1" source="DmlKLq1shtRMBLZsvWSt-170" target="DmlKLq1shtRMBLZsvWSt-175">
          <mxGeometry relative="1" as="geometry">
            <Array as="points">
              <mxPoint x="2250" y="440" />
              <mxPoint x="2380" y="440" />
            </Array>
          </mxGeometry>
        </mxCell>
        <mxCell id="DmlKLq1shtRMBLZsvWSt-170" value="&lt;span style=&quot;border-bottom: 1px dotted;&quot;&gt;AuthorId&lt;/span&gt;" style="shape=rhombus;perimeter=rhombusPerimeter;whiteSpace=wrap;html=1;align=center;fontStyle=0;fontSize=10;" vertex="1" parent="1">
          <mxGeometry x="2210" y="280" width="80" height="40" as="geometry" />
        </mxCell>
        <mxCell id="DmlKLq1shtRMBLZsvWSt-171" value="" style="endArrow=none;html=1;rounded=0;exitX=0.5;exitY=0;exitDx=0;exitDy=0;entryX=0.5;entryY=1;entryDx=0;entryDy=0;" edge="1" parent="1" source="DmlKLq1shtRMBLZsvWSt-170" target="DmlKLq1shtRMBLZsvWSt-153">
          <mxGeometry width="50" height="50" relative="1" as="geometry">
            <mxPoint x="2120" y="290" as="sourcePoint" />
            <mxPoint x="2210" y="250" as="targetPoint" />
          </mxGeometry>
        </mxCell>
        <mxCell id="DmlKLq1shtRMBLZsvWSt-172" value="" style="endArrow=none;html=1;rounded=0;exitX=0.5;exitY=0;exitDx=0;exitDy=0;entryX=0.5;entryY=1;entryDx=0;entryDy=0;" edge="1" parent="1" source="DmlKLq1shtRMBLZsvWSt-153" target="DmlKLq1shtRMBLZsvWSt-1">
          <mxGeometry width="50" height="50" relative="1" as="geometry">
            <mxPoint x="1430" y="210" as="sourcePoint" />
            <mxPoint x="900" y="110" as="targetPoint" />
          </mxGeometry>
        </mxCell>
        <mxCell id="DmlKLq1shtRMBLZsvWSt-173" value="Author" style="ellipse;shape=doubleEllipse;margin=3;whiteSpace=wrap;html=1;align=center;fillColor=#CCCCCC;fontColor=#333333;strokeColor=#000000;" vertex="1" parent="1">
          <mxGeometry x="2480" y="200" width="80" height="40" as="geometry" />
        </mxCell>
        <mxCell id="DmlKLq1shtRMBLZsvWSt-174" value="BirthYear" style="ellipse;whiteSpace=wrap;html=1;align=center;fontSize=10;" vertex="1" parent="1">
          <mxGeometry x="2530" y="280" width="80" height="40" as="geometry" />
        </mxCell>
        <mxCell id="DmlKLq1shtRMBLZsvWSt-175" value="AuthorId" style="shape=rhombus;perimeter=rhombusPerimeter;whiteSpace=wrap;html=1;align=center;fontStyle=4;fontSize=10;" vertex="1" parent="1">
          <mxGeometry x="2340" y="280" width="80" height="40" as="geometry" />
        </mxCell>
        <mxCell id="DmlKLq1shtRMBLZsvWSt-177" value="" style="endArrow=none;html=1;rounded=0;exitX=0.5;exitY=0;exitDx=0;exitDy=0;entryX=0.5;entryY=1;entryDx=0;entryDy=0;" edge="1" parent="1" source="DmlKLq1shtRMBLZsvWSt-175" target="DmlKLq1shtRMBLZsvWSt-173">
          <mxGeometry width="50" height="50" relative="1" as="geometry">
            <mxPoint x="2545" y="290" as="sourcePoint" />
            <mxPoint x="2595" y="240" as="targetPoint" />
          </mxGeometry>
        </mxCell>
        <mxCell id="DmlKLq1shtRMBLZsvWSt-179" value="" style="endArrow=none;html=1;rounded=0;exitX=0.5;exitY=0;exitDx=0;exitDy=0;entryX=0.5;entryY=1;entryDx=0;entryDy=0;" edge="1" parent="1" source="DmlKLq1shtRMBLZsvWSt-174" target="DmlKLq1shtRMBLZsvWSt-173">
          <mxGeometry width="50" height="50" relative="1" as="geometry">
            <mxPoint x="2445" y="290" as="sourcePoint" />
            <mxPoint x="2535" y="250" as="targetPoint" />
          </mxGeometry>
        </mxCell>
        <mxCell id="DmlKLq1shtRMBLZsvWSt-180" value="Nationality" style="ellipse;whiteSpace=wrap;html=1;align=center;fontSize=10;" vertex="1" parent="1">
          <mxGeometry x="2620" y="280" width="80" height="40" as="geometry" />
        </mxCell>
        <mxCell id="DmlKLq1shtRMBLZsvWSt-181" value="" style="endArrow=none;html=1;rounded=0;exitX=0.5;exitY=0;exitDx=0;exitDy=0;entryX=0.5;entryY=1;entryDx=0;entryDy=0;" edge="1" parent="1" source="DmlKLq1shtRMBLZsvWSt-180" target="DmlKLq1shtRMBLZsvWSt-173">
          <mxGeometry width="50" height="50" relative="1" as="geometry">
            <mxPoint x="2535" y="290" as="sourcePoint" />
            <mxPoint x="2535" y="250" as="targetPoint" />
          </mxGeometry>
        </mxCell>
        <mxCell id="DmlKLq1shtRMBLZsvWSt-182" value="" style="whiteSpace=wrap;html=1;aspect=fixed;" vertex="1" parent="1">
          <mxGeometry x="2560" y="330" width="20" height="20" as="geometry" />
        </mxCell>
        <mxCell id="DmlKLq1shtRMBLZsvWSt-183" value="" style="whiteSpace=wrap;html=1;aspect=fixed;" vertex="1" parent="1">
          <mxGeometry x="2650" y="330" width="20" height="20" as="geometry" />
        </mxCell>
        <mxCell id="DmlKLq1shtRMBLZsvWSt-184" value="" style="endArrow=none;html=1;rounded=0;exitX=0.5;exitY=0;exitDx=0;exitDy=0;entryX=0.5;entryY=1;entryDx=0;entryDy=0;" edge="1" parent="1" source="DmlKLq1shtRMBLZsvWSt-182" target="DmlKLq1shtRMBLZsvWSt-174">
          <mxGeometry width="50" height="50" relative="1" as="geometry">
            <mxPoint x="2580" y="290" as="sourcePoint" />
            <mxPoint x="2580" y="250" as="targetPoint" />
          </mxGeometry>
        </mxCell>
        <mxCell id="DmlKLq1shtRMBLZsvWSt-185" value="" style="endArrow=none;html=1;rounded=0;exitX=0.5;exitY=0;exitDx=0;exitDy=0;entryX=0.5;entryY=1;entryDx=0;entryDy=0;" edge="1" parent="1" source="DmlKLq1shtRMBLZsvWSt-183" target="DmlKLq1shtRMBLZsvWSt-180">
          <mxGeometry width="50" height="50" relative="1" as="geometry">
            <mxPoint x="2575" y="340" as="sourcePoint" />
            <mxPoint x="2575" y="330" as="targetPoint" />
          </mxGeometry>
        </mxCell>
        <mxCell id="DmlKLq1shtRMBLZsvWSt-188" value="Name" style="ellipse;whiteSpace=wrap;html=1;align=center;fontSize=10;" vertex="1" parent="1">
          <mxGeometry x="2430" y="280" width="80" height="40" as="geometry" />
        </mxCell>
        <mxCell id="DmlKLq1shtRMBLZsvWSt-189" value="" style="whiteSpace=wrap;html=1;aspect=fixed;" vertex="1" parent="1">
          <mxGeometry x="2460" y="330" width="20" height="20" as="geometry" />
        </mxCell>
        <mxCell id="DmlKLq1shtRMBLZsvWSt-190" value="" style="endArrow=none;html=1;rounded=0;exitX=0.5;exitY=0;exitDx=0;exitDy=0;entryX=0.5;entryY=1;entryDx=0;entryDy=0;" edge="1" parent="1" source="DmlKLq1shtRMBLZsvWSt-189" target="DmlKLq1shtRMBLZsvWSt-188">
          <mxGeometry width="50" height="50" relative="1" as="geometry">
            <mxPoint x="2480" y="290" as="sourcePoint" />
            <mxPoint x="2480" y="250" as="targetPoint" />
          </mxGeometry>
        </mxCell>
        <mxCell id="DmlKLq1shtRMBLZsvWSt-191" value="" style="endArrow=none;html=1;rounded=0;exitX=0.5;exitY=0;exitDx=0;exitDy=0;entryX=0.5;entryY=1;entryDx=0;entryDy=0;" edge="1" parent="1" source="DmlKLq1shtRMBLZsvWSt-188" target="DmlKLq1shtRMBLZsvWSt-173">
          <mxGeometry width="50" height="50" relative="1" as="geometry">
            <mxPoint x="2390" y="290" as="sourcePoint" />
            <mxPoint x="2530" y="250" as="targetPoint" />
          </mxGeometry>
        </mxCell>
        <mxCell id="DmlKLq1shtRMBLZsvWSt-193" value="" style="endArrow=none;html=1;rounded=0;entryX=0.5;entryY=0;entryDx=0;entryDy=0;exitX=0.5;exitY=1;exitDx=0;exitDy=0;" edge="1" parent="1" source="DmlKLq1shtRMBLZsvWSt-1" target="DmlKLq1shtRMBLZsvWSt-173">
          <mxGeometry width="50" height="50" relative="1" as="geometry">
            <mxPoint x="1480" y="90" as="sourcePoint" />
            <mxPoint x="2150" y="250" as="targetPoint" />
          </mxGeometry>
        </mxCell>
        <mxCell id="DmlKLq1shtRMBLZsvWSt-194" value="Publisher" style="ellipse;shape=doubleEllipse;margin=3;whiteSpace=wrap;html=1;align=center;fillColor=#CCCCCC;fontColor=#333333;strokeColor=#000000;" vertex="1" parent="1">
          <mxGeometry x="1360" y="200" width="80" height="40" as="geometry" />
        </mxCell>
        <mxCell id="DmlKLq1shtRMBLZsvWSt-195" value="FoundedYear" style="ellipse;whiteSpace=wrap;html=1;align=center;fontSize=10;" vertex="1" parent="1">
          <mxGeometry x="1410" y="280" width="80" height="40" as="geometry" />
        </mxCell>
        <mxCell id="DmlKLq1shtRMBLZsvWSt-196" value="PublisherId" style="shape=rhombus;perimeter=rhombusPerimeter;whiteSpace=wrap;html=1;align=center;fontStyle=4;fontSize=10;" vertex="1" parent="1">
          <mxGeometry x="1220" y="280" width="80" height="40" as="geometry" />
        </mxCell>
        <mxCell id="DmlKLq1shtRMBLZsvWSt-197" value="" style="endArrow=none;html=1;rounded=0;exitX=0.5;exitY=0;exitDx=0;exitDy=0;entryX=0.5;entryY=1;entryDx=0;entryDy=0;" edge="1" parent="1" source="DmlKLq1shtRMBLZsvWSt-196" target="DmlKLq1shtRMBLZsvWSt-194">
          <mxGeometry width="50" height="50" relative="1" as="geometry">
            <mxPoint x="1425" y="290" as="sourcePoint" />
            <mxPoint x="1475" y="240" as="targetPoint" />
          </mxGeometry>
        </mxCell>
        <mxCell id="DmlKLq1shtRMBLZsvWSt-198" value="" style="endArrow=none;html=1;rounded=0;exitX=0.5;exitY=0;exitDx=0;exitDy=0;entryX=0.5;entryY=1;entryDx=0;entryDy=0;" edge="1" parent="1" source="DmlKLq1shtRMBLZsvWSt-195" target="DmlKLq1shtRMBLZsvWSt-194">
          <mxGeometry width="50" height="50" relative="1" as="geometry">
            <mxPoint x="1325" y="290" as="sourcePoint" />
            <mxPoint x="1415" y="250" as="targetPoint" />
          </mxGeometry>
        </mxCell>
        <mxCell id="DmlKLq1shtRMBLZsvWSt-199" value="Country" style="ellipse;whiteSpace=wrap;html=1;align=center;fontSize=10;" vertex="1" parent="1">
          <mxGeometry x="1500" y="280" width="80" height="40" as="geometry" />
        </mxCell>
        <mxCell id="DmlKLq1shtRMBLZsvWSt-200" value="" style="endArrow=none;html=1;rounded=0;exitX=0.5;exitY=0;exitDx=0;exitDy=0;entryX=0.5;entryY=1;entryDx=0;entryDy=0;" edge="1" parent="1" source="DmlKLq1shtRMBLZsvWSt-199" target="DmlKLq1shtRMBLZsvWSt-194">
          <mxGeometry width="50" height="50" relative="1" as="geometry">
            <mxPoint x="1415" y="290" as="sourcePoint" />
            <mxPoint x="1415" y="250" as="targetPoint" />
          </mxGeometry>
        </mxCell>
        <mxCell id="DmlKLq1shtRMBLZsvWSt-201" value="" style="whiteSpace=wrap;html=1;aspect=fixed;" vertex="1" parent="1">
          <mxGeometry x="1440" y="330" width="20" height="20" as="geometry" />
        </mxCell>
        <mxCell id="DmlKLq1shtRMBLZsvWSt-202" value="" style="whiteSpace=wrap;html=1;aspect=fixed;" vertex="1" parent="1">
          <mxGeometry x="1530" y="330" width="20" height="20" as="geometry" />
        </mxCell>
        <mxCell id="DmlKLq1shtRMBLZsvWSt-203" value="" style="endArrow=none;html=1;rounded=0;exitX=0.5;exitY=0;exitDx=0;exitDy=0;entryX=0.5;entryY=1;entryDx=0;entryDy=0;" edge="1" parent="1" source="DmlKLq1shtRMBLZsvWSt-201" target="DmlKLq1shtRMBLZsvWSt-195">
          <mxGeometry width="50" height="50" relative="1" as="geometry">
            <mxPoint x="1460" y="290" as="sourcePoint" />
            <mxPoint x="1460" y="250" as="targetPoint" />
          </mxGeometry>
        </mxCell>
        <mxCell id="DmlKLq1shtRMBLZsvWSt-204" value="" style="endArrow=none;html=1;rounded=0;exitX=0.5;exitY=0;exitDx=0;exitDy=0;entryX=0.5;entryY=1;entryDx=0;entryDy=0;" edge="1" parent="1" source="DmlKLq1shtRMBLZsvWSt-202" target="DmlKLq1shtRMBLZsvWSt-199">
          <mxGeometry width="50" height="50" relative="1" as="geometry">
            <mxPoint x="1455" y="340" as="sourcePoint" />
            <mxPoint x="1455" y="330" as="targetPoint" />
          </mxGeometry>
        </mxCell>
        <mxCell id="DmlKLq1shtRMBLZsvWSt-205" value="Name" style="ellipse;whiteSpace=wrap;html=1;align=center;fontSize=10;" vertex="1" parent="1">
          <mxGeometry x="1310" y="280" width="80" height="40" as="geometry" />
        </mxCell>
        <mxCell id="DmlKLq1shtRMBLZsvWSt-206" value="" style="whiteSpace=wrap;html=1;aspect=fixed;" vertex="1" parent="1">
          <mxGeometry x="1340" y="330" width="20" height="20" as="geometry" />
        </mxCell>
        <mxCell id="DmlKLq1shtRMBLZsvWSt-207" value="" style="endArrow=none;html=1;rounded=0;exitX=0.5;exitY=0;exitDx=0;exitDy=0;entryX=0.5;entryY=1;entryDx=0;entryDy=0;" edge="1" parent="1" source="DmlKLq1shtRMBLZsvWSt-206" target="DmlKLq1shtRMBLZsvWSt-205">
          <mxGeometry width="50" height="50" relative="1" as="geometry">
            <mxPoint x="1360" y="290" as="sourcePoint" />
            <mxPoint x="1360" y="250" as="targetPoint" />
          </mxGeometry>
        </mxCell>
        <mxCell id="DmlKLq1shtRMBLZsvWSt-208" value="" style="endArrow=none;html=1;rounded=0;exitX=0.5;exitY=0;exitDx=0;exitDy=0;entryX=0.5;entryY=1;entryDx=0;entryDy=0;" edge="1" parent="1" source="DmlKLq1shtRMBLZsvWSt-205" target="DmlKLq1shtRMBLZsvWSt-194">
          <mxGeometry width="50" height="50" relative="1" as="geometry">
            <mxPoint x="1270" y="290" as="sourcePoint" />
            <mxPoint x="1410" y="250" as="targetPoint" />
          </mxGeometry>
        </mxCell>
        <mxCell id="DmlKLq1shtRMBLZsvWSt-209" value="" style="endArrow=none;html=1;rounded=0;entryX=0.5;entryY=0;entryDx=0;entryDy=0;exitX=0.5;exitY=1;exitDx=0;exitDy=0;" edge="1" parent="1" source="DmlKLq1shtRMBLZsvWSt-1" target="DmlKLq1shtRMBLZsvWSt-194">
          <mxGeometry width="50" height="50" relative="1" as="geometry">
            <mxPoint x="1850" as="sourcePoint" />
            <mxPoint x="2590" y="250" as="targetPoint" />
          </mxGeometry>
        </mxCell>
      </root>
    </mxGraphModel>
  </diagram>
</mxfile>
